<svg width="1200" height="1200" viewBox="0 0 1200 1200" fill="none" xmlns="http://www.w3.org/2000/svg">
<rect width="1200" height="1200" fill="#FFF7DC"/>
<path d="M260.431 768.693V783.034H228.534V802.073H257.711V816.291H228.534V846.58H209.743V768.693H260.431ZM287.75 768.693H318.658C323.108 768.693 327.023 769.353 330.402 770.671C333.864 771.908 336.708 773.639 338.933 775.864C341.241 778.089 342.971 780.685 344.125 783.653C345.279 786.62 345.856 789.793 345.856 793.172C345.856 796.386 345.362 799.23 344.373 801.702C343.466 804.093 342.271 806.194 340.787 808.008C339.304 809.821 337.697 811.304 335.966 812.458C334.235 813.612 332.628 814.519 331.144 815.178L349.812 846.58H328.177L314.331 818.516H306.542V846.58H287.75V768.693ZM306.542 804.299H312.229C316.515 804.299 319.976 803.433 322.614 801.702C325.251 799.972 326.57 797.169 326.57 793.296C326.57 790.081 325.498 787.526 323.356 785.631C321.213 783.735 318.122 782.787 314.083 782.787H306.542V804.299ZM375.899 768.693H427.824V783.034H394.691V798.983H424.609V813.2H394.691V832.239H428.195V846.58H375.899V768.693ZM456.683 768.693H508.608V783.034H475.475V798.983H505.394V813.2H475.475V832.239H508.979V846.58H456.683V768.693ZM608.607 767.21C614.047 767.21 618.745 767.787 622.701 768.941C626.657 770.012 630.077 771.331 632.962 772.897L628.759 786.62C625.544 784.971 622.289 783.694 618.992 782.787C615.778 781.798 612.687 781.304 609.72 781.304C605.928 781.304 603.044 782.004 601.066 783.405C599.088 784.806 598.099 786.661 598.099 788.969C598.099 791.606 599.046 793.543 600.942 794.779C602.838 795.933 605.764 797.169 609.72 798.488L617.014 800.837C619.899 801.826 622.577 803.062 625.05 804.546C627.522 805.947 629.624 807.595 631.355 809.491C633.168 811.387 634.569 813.53 635.558 815.92C636.547 818.31 637.042 820.906 637.042 823.709C637.042 827.005 636.424 830.137 635.187 833.104C633.951 835.989 632.055 838.544 629.5 840.769C627.028 842.995 623.855 844.767 619.981 846.086C616.19 847.322 611.698 847.94 606.505 847.94C601.643 847.94 596.986 847.445 592.535 846.456C588.167 845.385 584.128 843.901 580.419 842.006L584.623 828.283C588.167 830.014 591.629 831.374 595.008 832.363C598.387 833.352 601.931 833.846 605.64 833.846C610.008 833.846 613.14 833.146 615.036 831.745C617.014 830.261 618.003 828.283 618.003 825.81C618.003 824.986 617.838 824.162 617.508 823.338C617.179 822.513 616.519 821.689 615.53 820.865C614.624 820.041 613.305 819.258 611.574 818.516C609.926 817.692 607.783 816.868 605.145 816.044L599.088 813.942C596.203 812.87 593.524 811.675 591.052 810.357C588.579 809.038 586.436 807.472 584.623 805.659C582.892 803.845 581.532 801.744 580.543 799.354C579.554 796.963 579.06 794.12 579.06 790.823C579.06 787.444 579.678 784.312 580.914 781.427C582.233 778.543 584.128 776.07 586.601 774.009C589.156 771.866 592.247 770.218 595.873 769.064C599.582 767.828 603.827 767.21 608.607 767.21ZM665.956 768.693H694.143C698.841 768.693 703.086 769.229 706.877 770.301C710.669 771.372 713.883 772.938 716.52 774.998C719.24 777.059 721.301 779.573 722.702 782.54C724.185 785.425 724.927 788.763 724.927 792.554C724.927 797.087 724.062 801.002 722.331 804.299C720.6 807.595 718.251 810.357 715.284 812.582C712.399 814.725 708.979 816.332 705.023 817.403C701.149 818.392 697.028 818.887 692.66 818.887H684.748V846.58H665.956V768.693ZM684.748 804.67H691.547C693.36 804.67 695.132 804.464 696.863 804.051C698.594 803.639 700.078 803.021 701.314 802.197C702.633 801.29 703.663 800.136 704.405 798.735C705.229 797.334 705.641 795.603 705.641 793.543C705.641 789.999 704.405 787.32 701.932 785.507C699.542 783.694 696.328 782.787 692.289 782.787H684.748V804.67ZM771.689 768.693V846.58H752.897V768.693H771.689ZM804.102 768.693H835.01C839.46 768.693 843.375 769.353 846.755 770.671C850.216 771.908 853.06 773.639 855.285 775.864C857.593 778.089 859.324 780.685 860.478 783.653C861.631 786.62 862.208 789.793 862.208 793.172C862.208 796.386 861.714 799.23 860.725 801.702C859.818 804.093 858.623 806.194 857.14 808.008C855.656 809.821 854.049 811.304 852.318 812.458C850.587 813.612 848.98 814.519 847.496 815.178L866.165 846.58H844.529L830.683 818.516H822.894V846.58H804.102V768.693ZM822.894 804.299H828.581C832.867 804.299 836.329 803.433 838.966 801.702C841.603 799.972 842.922 797.169 842.922 793.296C842.922 790.081 841.851 787.526 839.708 785.631C837.565 783.735 834.474 782.787 830.436 782.787H822.894V804.299ZM911.043 768.693V846.58H892.251V768.693H911.043ZM997.359 768.693V783.282H976.095V846.58H957.303V783.282H936.533V768.693H997.359Z" fill="#404145"/>
<path d="M230.061 950.217L216.825 919.431L215.717 916.487L215.922 927.04V952.87H211.199V909.752H217.729L232.743 944.095L247.611 909.752H253.967V952.87H249.069V926.923L249.273 916.603L248.194 919.548L234.988 950.217H230.061ZM300.201 926.807C298.782 925.097 296.829 924.241 294.341 924.241C291.853 924.241 289.822 925.126 288.248 926.894C286.674 928.644 285.75 931.044 285.478 934.095H302.358C302.358 930.927 301.639 928.498 300.201 926.807ZM295.303 953.541C290.658 953.541 286.994 952.064 284.312 949.109C281.649 946.155 280.318 942.112 280.318 936.981C280.318 932.025 281.611 928.012 284.196 924.941C286.78 921.851 290.182 920.276 294.399 920.218C298.364 920.218 301.503 921.579 303.816 924.3C306.148 927.001 307.314 930.616 307.314 935.145C307.314 935.378 307.305 935.806 307.285 936.428C307.285 937.049 307.285 937.497 307.285 937.769H285.332C285.391 941.403 286.324 944.241 288.131 946.281C289.958 948.303 292.407 949.313 295.478 949.313C298.86 949.313 302.251 948.419 305.652 946.631L306.41 950.567C303.165 952.549 299.462 953.541 295.303 953.541ZM345.065 949.343C348.271 949.343 350.652 948.312 352.207 946.252C353.781 944.192 354.569 941.248 354.569 937.419C354.569 933.104 353.811 929.858 352.295 927.681C350.798 925.485 348.369 924.387 345.006 924.387C343.51 924.387 342.188 924.708 341.041 925.349C339.895 925.991 338.971 926.885 338.272 928.031C337.572 929.178 337.038 930.5 336.668 931.996C336.318 933.473 336.144 935.096 336.144 936.865C336.144 939.353 336.445 941.51 337.047 943.337C337.669 945.164 338.66 946.622 340.021 947.71C341.381 948.798 343.063 949.343 345.065 949.343ZM354.656 948.235C353.607 949.848 352.207 951.131 350.458 952.083C348.709 953.035 346.755 953.511 344.598 953.511C340.381 953.511 337.076 952.015 334.686 949.022C332.295 946.009 331.1 941.918 331.1 936.748C331.1 931.812 332.315 927.827 334.744 924.795C337.174 921.744 340.429 920.218 344.511 920.218C346.629 920.218 348.621 920.685 350.487 921.618C352.372 922.531 353.781 923.765 354.714 925.32L354.627 922.55V908.469L359.437 908.178V952.87H355.297L354.656 948.235ZM392.173 920.889V952.87H387.275V920.889H392.173ZM392.173 909.256V915.029H387.275V909.256H392.173ZM430.069 953.453C426.921 953.453 424.685 952.685 423.364 951.15C422.042 949.615 421.343 947.137 421.265 943.716V924.504H416.513L416.717 921.297L421.236 920.889L422.897 913.571L426.104 913.455V920.889H434.996V924.504H426.104V942.841C426.104 945.271 426.474 946.981 427.212 947.972C427.951 948.964 429.214 949.459 431.002 949.459C431.643 949.459 433.033 949.304 435.171 948.993L435.375 952.841C433.062 953.249 431.294 953.453 430.069 953.453ZM468.198 949.605C470.511 949.605 472.542 948.973 474.292 947.71C476.06 946.427 477.197 944.707 477.702 942.55V937.156C477.605 937.156 477.013 937.205 475.924 937.302C474.855 937.399 474.155 937.458 473.825 937.477C469.608 937.846 466.663 938.536 464.992 939.547C463.34 940.558 462.514 942.18 462.514 944.416C462.514 946.126 463.019 947.418 464.029 948.293C465.04 949.168 466.43 949.605 468.198 949.605ZM478.781 952.87C478.49 951.626 478.208 950.285 477.936 948.847C476.167 950.616 474.505 951.84 472.95 952.52C471.396 953.201 469.569 953.541 467.47 953.541C464.477 953.541 462.066 952.763 460.24 951.208C458.432 949.634 457.528 947.38 457.528 944.445C457.528 941.18 458.762 938.76 461.231 937.186C463.719 935.611 467.295 934.63 471.959 934.241C472.601 934.183 473.563 934.105 474.845 934.008C476.148 933.891 477.119 933.804 477.761 933.745V930.918C477.761 928.663 477.236 926.992 476.186 925.903C475.137 924.815 473.485 924.271 471.23 924.271C468.082 924.271 464.904 925.048 461.697 926.603C461.6 926.37 461.347 925.699 460.939 924.591C460.531 923.464 460.317 922.881 460.298 922.842C461.717 922.045 463.398 921.413 465.341 920.947C467.304 920.461 469.297 920.218 471.318 920.218C475.302 920.218 478.169 921.093 479.918 922.842C481.687 924.572 482.571 927.526 482.571 931.705V952.87H478.781ZM519.68 953.453C516.531 953.453 514.296 952.685 512.975 951.15C511.653 949.615 510.953 947.137 510.876 943.716V924.504H506.124L506.328 921.297L510.847 920.889L512.508 913.571L515.715 913.455V920.889H524.607V924.504H515.715V942.841C515.715 945.271 516.084 946.981 516.823 947.972C517.562 948.964 518.825 949.459 520.613 949.459C521.254 949.459 522.644 949.304 524.782 948.993L524.986 952.841C522.673 953.249 520.904 953.453 519.68 953.453ZM554.428 920.889V952.87H549.53V920.889H554.428ZM554.428 909.256V915.029H549.53V909.256H554.428ZM585.677 936.952C585.677 940.742 586.512 943.784 588.184 946.077C589.875 948.351 592.333 949.488 595.56 949.488C598.747 949.488 601.147 948.351 602.761 946.077C604.393 943.803 605.209 940.742 605.209 936.894C605.209 932.987 604.403 929.917 602.79 927.681C601.196 925.427 598.757 924.3 595.472 924.3C592.285 924.3 589.855 925.446 588.184 927.74C586.512 930.033 585.677 933.104 585.677 936.952ZM610.253 936.865C610.253 941.821 608.931 945.844 606.288 948.934C603.645 952.005 599.991 953.541 595.326 953.541C590.837 953.541 587.261 951.986 584.598 948.876C581.955 945.766 580.633 941.772 580.633 936.894C580.633 931.918 581.964 927.895 584.627 924.824C587.29 921.754 590.944 920.218 595.589 920.218C600.156 920.218 603.742 921.763 606.346 924.854C608.951 927.924 610.253 931.928 610.253 936.865ZM635.671 952.87V920.889H639.753L640.365 925.466C641.628 923.892 643.203 922.628 645.088 921.676C646.993 920.704 649.043 920.218 651.239 920.218C654.932 920.218 657.663 921.258 659.431 923.338C661.2 925.398 662.084 928.576 662.084 932.871V952.87H657.216C657.216 940.043 657.206 933.172 657.187 932.259C657.109 929.538 656.555 927.545 655.525 926.282C654.514 925.019 652.814 924.387 650.423 924.387C647.916 924.387 645.826 924.99 644.155 926.195C642.484 927.4 641.395 928.964 640.89 930.888C640.695 932.191 640.598 933.687 640.598 935.378V952.87H635.671ZM735.661 953.541C730.957 953.541 727.274 952.015 724.612 948.964C721.968 945.912 720.647 941.918 720.647 936.981C720.666 932.006 722.017 927.973 724.699 924.883C727.401 921.773 731.094 920.218 735.778 920.218C737.43 920.218 739.023 920.422 740.559 920.83C742.114 921.239 743.338 921.773 744.232 922.434L742.891 926.224C740.617 924.999 738.217 924.387 735.69 924.387C732.6 924.387 730.151 925.514 728.343 927.769C726.555 930.023 725.661 933.104 725.661 937.011C725.661 940.82 726.546 943.842 728.314 946.077C730.102 948.293 732.571 949.401 735.719 949.401C738.226 949.401 740.792 948.721 743.416 947.36L744.028 951.238C741.909 952.773 739.12 953.541 735.661 953.541ZM787.288 926.807C785.869 925.097 783.916 924.241 781.428 924.241C778.941 924.241 776.91 925.126 775.335 926.894C773.761 928.644 772.838 931.044 772.566 934.095H789.446C789.446 930.927 788.726 928.498 787.288 926.807ZM782.39 953.541C777.745 953.541 774.082 952.064 771.4 949.109C768.737 946.155 767.405 942.112 767.405 936.981C767.405 932.025 768.698 928.012 771.283 924.941C773.868 921.851 777.269 920.276 781.487 920.218C785.452 920.218 788.59 921.579 790.903 924.3C793.235 927.001 794.402 930.616 794.402 935.145C794.402 935.378 794.392 935.806 794.372 936.428C794.372 937.049 794.372 937.497 794.372 937.769H772.42C772.478 941.403 773.411 944.241 775.219 946.281C777.046 948.303 779.494 949.313 782.565 949.313C785.947 949.313 789.339 948.419 792.74 946.631L793.498 950.567C790.252 952.549 786.55 953.541 782.39 953.541ZM819.674 952.87V920.889H823.756L824.368 925.466C825.631 923.892 827.206 922.628 829.091 921.676C830.996 920.704 833.046 920.218 835.242 920.218C838.935 920.218 841.666 921.258 843.434 923.338C845.203 925.398 846.087 928.576 846.087 932.871V952.87H841.219C841.219 940.043 841.209 933.172 841.19 932.259C841.112 929.538 840.558 927.545 839.528 926.282C838.517 925.019 836.817 924.387 834.426 924.387C831.919 924.387 829.829 924.99 828.158 926.195C826.487 927.4 825.398 928.964 824.893 930.888C824.698 932.191 824.601 933.687 824.601 935.378V952.87H819.674ZM882.905 953.453C879.756 953.453 877.521 952.685 876.199 951.15C874.878 949.615 874.178 947.137 874.1 943.716V924.504H869.348L869.552 921.297L874.071 920.889L875.733 913.571L878.94 913.455V920.889H887.832V924.504H878.94V942.841C878.94 945.271 879.309 946.981 880.048 947.972C880.786 948.964 882.05 949.459 883.838 949.459C884.479 949.459 885.869 949.304 888.007 948.993L888.211 952.841C885.898 953.249 884.129 953.453 882.905 953.453ZM929.984 926.807C928.565 925.097 926.612 924.241 924.124 924.241C921.636 924.241 919.605 925.126 918.031 926.894C916.457 928.644 915.534 931.044 915.262 934.095H932.141C932.141 930.927 931.422 928.498 929.984 926.807ZM925.086 953.541C920.441 953.541 916.778 952.064 914.095 949.109C911.433 946.155 910.101 942.112 910.101 936.981C910.101 932.025 911.394 928.012 913.979 924.941C916.564 921.851 919.965 920.276 924.183 920.218C928.147 920.218 931.286 921.579 933.599 924.3C935.931 927.001 937.098 930.616 937.098 935.145C937.098 935.378 937.088 935.806 937.068 936.428C937.068 937.049 937.068 937.497 937.068 937.769H915.116C915.174 941.403 916.107 944.241 917.915 946.281C919.742 948.303 922.19 949.313 925.261 949.313C928.643 949.313 932.035 948.419 935.436 946.631L936.194 950.567C932.948 952.549 929.246 953.541 925.086 953.541ZM976.714 920.597C977.588 920.597 978.385 920.655 979.104 920.772L978.929 925.262C978.035 925.106 977.258 925.029 976.597 925.029C973.876 925.029 971.66 925.981 969.95 927.886C968.259 929.771 967.414 932.113 967.414 934.912V952.87H962.545C962.526 933.24 962.516 922.58 962.516 920.889H966.568L967.035 926.632C968.143 924.824 969.552 923.367 971.262 922.259C972.972 921.151 974.79 920.597 976.714 920.597Z" fill="#404145"/>
<path d="M809.201 301.552C807.539 300.462 768.249 275.254 721.215 290.749C720.45 291.013 719.686 291.344 718.921 291.608C717.492 292.104 716.063 292.632 714.633 293.227C713.536 293.689 712.439 294.185 711.343 294.681C710.246 295.176 709.149 295.672 708.052 296.233C706.922 296.795 705.825 297.324 704.728 297.918C703.697 298.48 702.634 299.075 701.603 299.702C699.376 300.991 697.216 302.345 695.055 303.799C694.49 304.162 693.925 304.526 693.36 304.922C693.26 304.988 693.16 305.054 693.061 305.154C672.684 319.459 654.735 341.594 639.378 371.394L488.136 220.973C486.64 219.487 484.446 218.925 482.418 219.52C480.391 220.114 478.828 221.733 478.363 223.781C478.097 224.971 461.344 301.255 480.224 387.913H346.599C344.472 387.913 342.544 389.07 341.514 390.887C340.483 392.737 340.55 394.983 341.68 396.767C341.946 397.197 349.691 409.19 364.183 426.501C364.582 427.261 365.147 427.922 365.812 428.418C372.56 436.38 380.704 445.399 390.111 454.881C390.642 455.905 391.473 456.731 392.504 457.259C428.004 492.445 481.155 533.279 548.699 551.483C487.803 638.505 423.617 683.535 422.686 684.163C421.755 684.791 421.057 685.683 420.625 686.674C420.525 686.905 420.492 687.136 420.426 687.368C420.359 687.665 420.226 687.929 420.193 688.227C420.126 688.755 420.126 689.317 420.226 689.879C420.592 692.092 422.221 693.876 424.414 694.471L535.203 725.13C535.702 725.262 536.234 725.328 536.766 725.328C538.129 725.328 539.458 724.866 540.522 723.974C541.984 722.751 542.749 720.868 542.55 718.952C542.317 716.705 542.151 714.525 542.018 712.377C538.96 655.057 577.884 635.564 627.046 618.847C636.419 616.006 652.94 610.555 662.048 607.515C672.718 603.947 679.033 601.833 682.823 600.346C684.252 599.884 684.651 599.751 684.75 599.751L684.717 599.586C685.449 599.256 686.014 598.992 686.479 598.727C749.934 574.345 805.379 533.94 780.216 409.652C780.183 409.553 780.183 409.487 780.149 409.388C779.252 404.895 778.222 400.335 777.125 395.611C777.091 395.479 777.058 395.347 777.025 395.248C767.485 364.655 767.851 341.825 778.089 327.454C778.72 326.562 779.418 325.703 780.116 324.91C780.316 324.679 780.515 324.481 780.715 324.282C781.213 323.721 781.712 323.159 782.244 322.664C782.509 322.399 782.809 322.168 783.108 321.904C783.573 321.474 784.039 321.045 784.504 320.681C784.87 320.384 785.235 320.153 785.601 319.888C786 319.591 786.432 319.261 786.831 318.963C787.23 318.699 787.628 318.468 788.027 318.203C788.393 317.972 788.792 317.708 789.157 317.477C789.623 317.212 790.121 316.948 790.587 316.717C790.886 316.552 791.185 316.386 791.451 316.254C792.083 315.957 792.681 315.693 793.279 315.428C793.412 315.362 793.578 315.296 793.711 315.23C794.376 314.933 795.041 314.701 795.706 314.47C795.772 314.437 795.839 314.404 795.905 314.404C801.224 312.521 805.379 312.224 806.043 312.191C806.077 312.191 806.143 312.191 806.143 312.191H806.176C806.476 312.191 806.775 312.091 807.074 312.025C807.373 311.959 807.705 311.959 807.971 311.86C808.37 311.728 808.703 311.497 809.035 311.266C809.201 311.166 809.401 311.1 809.534 311.001C809.933 310.704 810.265 310.307 810.597 309.878C810.664 309.812 810.73 309.746 810.797 309.68C811.129 309.184 811.395 308.623 811.595 308.028C811.761 307.433 811.827 306.805 811.827 306.211C811.727 304.295 810.797 302.577 809.201 301.552ZM786.664 305.682C786.166 305.913 785.7 306.178 785.202 306.442C784.803 306.64 784.404 306.838 784.039 307.07C783.54 307.334 783.041 307.664 782.543 307.962C782.144 308.193 781.745 308.424 781.379 308.656C780.881 308.986 780.349 309.349 779.85 309.713C779.485 309.977 779.086 310.208 778.72 310.506C778.155 310.902 777.623 311.365 777.058 311.827C776.726 312.091 776.393 312.323 776.094 312.62C775.496 313.116 774.931 313.677 774.366 314.206C774.1 314.47 773.801 314.701 773.535 314.966C772.87 315.627 772.238 316.32 771.607 317.047C771.441 317.245 771.241 317.411 771.075 317.642C770.277 318.567 769.479 319.591 768.748 320.615C756.183 338.059 755.219 364.258 765.889 398.485C766.92 402.747 767.817 406.877 768.648 410.941C768.781 411.634 768.948 412.328 769.081 412.989C769.812 416.656 770.443 420.224 771.042 423.759C771.208 424.783 771.374 425.808 771.54 426.799C771.64 427.327 771.673 427.823 771.773 428.351C760.438 414.938 747.74 403.144 736.14 392.34C721.946 379.125 709.681 367.727 704.03 357.353C696.052 342.651 690.302 322.664 700.174 314.272C700.872 313.776 701.57 313.314 702.268 312.851C703.365 312.125 704.495 311.398 705.592 310.737C707.188 309.779 708.75 308.854 710.379 307.995C710.811 307.764 711.243 307.532 711.708 307.301C713.669 306.31 715.597 305.352 717.592 304.493C717.725 304.427 717.858 304.394 717.991 304.328C720.251 303.369 722.511 302.511 724.805 301.751C750.965 293.095 774.931 298.942 789.224 304.559C788.792 304.757 788.326 304.955 787.894 305.154C787.429 305.319 787.03 305.484 786.664 305.682ZM565.352 526.308C527.525 488.051 506.318 442.921 494.917 399.476H620.73C622.558 399.476 624.387 399.576 626.182 399.708C624.52 403.87 622.857 408.099 621.295 412.427C606.902 451.808 588.088 490.099 565.352 526.308ZM632.431 416.359C634.292 411.238 636.253 406.348 638.214 401.525C671.421 409.388 696.218 439.122 696.218 474.505C696.218 515.902 662.347 549.534 620.697 549.534C602.215 549.534 584.532 547.552 567.712 544.116C591.678 507.939 614.581 465.288 632.431 416.359ZM487.77 236.964L633.793 382.099C632.796 384.213 631.832 386.36 630.902 388.508C627.578 388.111 624.187 387.913 620.73 387.913H492.091C477.1 321.474 483.947 260.751 487.77 236.964ZM409.922 457.986H476.801C480.025 457.986 482.618 455.409 482.618 452.205C482.618 449 480.025 446.423 476.801 446.423H398.022C392.238 440.575 386.953 434.959 382.233 429.64H451.472C454.696 429.64 457.289 427.063 457.289 423.858C457.289 420.654 454.696 418.077 451.472 418.077H372.227C366.045 410.61 361.125 404.201 357.702 399.476H482.95C494.75 446.159 517.387 494.989 558.771 536.121C558.837 536.187 558.937 536.286 559.003 536.352C557.906 538.037 556.776 539.722 555.679 541.374C494.152 525.813 444.724 490.529 409.922 457.986ZM530.35 711.816L523.038 709.8L438.907 686.509C448.513 679.042 464.568 665.728 484.047 646.467C498.041 639.133 523.702 635.135 553.353 630.51C559.136 629.618 565.186 628.66 571.435 627.635C548.865 641.709 528.19 666.455 530.35 711.816ZM670.557 592.252C668.396 592.979 665.903 593.805 663.011 594.763C624.254 607.747 585.629 613.759 551.558 619.079C532.212 622.085 515.326 624.728 501.498 628.197C520.179 608.143 540.655 583.563 560.732 554.49C579.679 558.719 599.689 561.13 620.73 561.13C668.795 561.13 707.886 522.278 707.886 474.538C707.886 434.397 680.23 400.534 642.868 390.754C654.668 364.622 668.13 343.841 683.188 328.61C683.321 338.522 686.845 350.217 693.725 362.871C700.274 374.929 713.171 386.922 728.096 400.798C743.652 415.268 761.236 431.655 774.199 450.85C780.349 542.563 728.661 571.768 670.557 592.252Z" fill="url(#paint0_linear)"/>
<defs>
<linearGradient id="paint0_linear" x1="461.303" y1="549.604" x2="865.958" y2="355.534" gradientUnits="userSpaceOnUse">
<stop stop-color="#FFA2A2"/>
<stop offset="1" stop-color="#FDDFB5"/>
</linearGradient>
</defs>
</svg>
